<svg width="1350" height="343" viewBox="0 0 1350 343" fill="none" xmlns="http://www.w3.org/2000/svg">
<rect width="101" height="101" fill="white"/>
<rect x="135" y="37" width="102" height="101" fill="white"/>
<path d="M237 37L288.5 87.5L339 138H237V37Z" fill="white" fill-opacity="0.4"/>
<path d="M237 343L288.5 292.5L339 242H237V343Z" fill="white" fill-opacity="0.4"/>
<rect x="237" y="138" width="101" height="104" fill="white"/>
<rect x="34" y="138" width="101" height="205" fill="white"/>
<rect x="237" y="242" width="101" height="203" transform="rotate(90 237 242)" fill="white"/>
<path d="M499.8 117.6C515 117.6 528.133 120.467 539.2 126.2C550.4 131.8 558.933 139.867 564.8 150.4C570.8 160.933 573.8 173.333 573.8 187.6C573.8 201.867 570.8 214.267 564.8 224.8C558.933 235.2 550.4 243.2 539.2 248.8C528.133 254.267 515 257 499.8 257H456.4V117.6H499.8ZM499.8 242C517.8 242 531.533 237.267 541 227.8C550.467 218.2 555.2 204.8 555.2 187.6C555.2 170.267 550.4 156.733 540.8 147C531.333 137.267 517.667 132.4 499.8 132.4H474.6V242H499.8ZM591.006 201.8C591.006 190.6 593.273 180.8 597.806 172.4C602.34 163.867 608.54 157.267 616.406 152.6C624.406 147.933 633.273 145.6 643.006 145.6C652.606 145.6 660.94 147.667 668.006 151.8C675.073 155.933 680.34 161.133 683.806 167.4V147.4H702.206V257H683.806V236.6C680.206 243 674.806 248.333 667.606 252.6C660.54 256.733 652.273 258.8 642.806 258.8C633.073 258.8 624.273 256.4 616.406 251.6C608.54 246.8 602.34 240.067 597.806 231.4C593.273 222.733 591.006 212.867 591.006 201.8ZM683.806 202C683.806 193.733 682.14 186.533 678.806 180.4C675.473 174.267 670.94 169.6 665.206 166.4C659.606 163.067 653.406 161.4 646.606 161.4C639.806 161.4 633.606 163 628.006 166.2C622.406 169.4 617.94 174.067 614.606 180.2C611.273 186.333 609.606 193.533 609.606 201.8C609.606 210.2 611.273 217.533 614.606 223.8C617.94 229.933 622.406 234.667 628.006 238C633.606 241.2 639.806 242.8 646.606 242.8C653.406 242.8 659.606 241.2 665.206 238C670.94 234.667 675.473 229.933 678.806 223.8C682.14 217.533 683.806 210.267 683.806 202ZM755.163 162.4V227C755.163 232.333 756.296 236.133 758.563 238.4C760.829 240.533 764.763 241.6 770.362 241.6H783.763V257H767.363C757.229 257 749.629 254.667 744.563 250C739.496 245.333 736.963 237.667 736.963 227V162.4H722.763V147.4H736.963V119.8H755.163V147.4H783.763V162.4H755.163ZM799.014 201.8C799.014 190.6 801.281 180.8 805.814 172.4C810.347 163.867 816.547 157.267 824.414 152.6C832.414 147.933 841.281 145.6 851.014 145.6C860.614 145.6 868.947 147.667 876.014 151.8C883.081 155.933 888.347 161.133 891.814 167.4V147.4H910.214V257H891.814V236.6C888.214 243 882.814 248.333 875.614 252.6C868.547 256.733 860.281 258.8 850.814 258.8C841.081 258.8 832.281 256.4 824.414 251.6C816.547 246.8 810.347 240.067 805.814 231.4C801.281 222.733 799.014 212.867 799.014 201.8ZM891.814 202C891.814 193.733 890.147 186.533 886.814 180.4C883.481 174.267 878.947 169.6 873.214 166.4C867.614 163.067 861.414 161.4 854.614 161.4C847.814 161.4 841.614 163 836.014 166.2C830.414 169.4 825.947 174.067 822.614 180.2C819.281 186.333 817.614 193.533 817.614 201.8C817.614 210.2 819.281 217.533 822.614 223.8C825.947 229.933 830.414 234.667 836.014 238C841.614 241.2 847.814 242.8 854.614 242.8C861.414 242.8 867.614 241.2 873.214 238C878.947 234.667 883.481 229.933 886.814 223.8C890.147 217.533 891.814 210.267 891.814 202ZM1010.77 185.2C1015.84 186 1020.44 188.067 1024.57 191.4C1028.84 194.733 1032.17 198.867 1034.57 203.8C1037.1 208.733 1038.37 214 1038.37 219.6C1038.37 226.667 1036.57 233.067 1032.97 238.8C1029.37 244.4 1024.1 248.867 1017.17 252.2C1010.37 255.4 1002.3 257 992.97 257H940.97V117.6H990.97C1000.44 117.6 1008.5 119.2 1015.17 122.4C1021.84 125.467 1026.84 129.667 1030.17 135C1033.5 140.333 1035.17 146.333 1035.17 153C1035.17 161.267 1032.9 168.133 1028.37 173.6C1023.97 178.933 1018.1 182.8 1010.77 185.2ZM959.17 177.8H989.77C998.304 177.8 1004.9 175.8 1009.57 171.8C1014.24 167.8 1016.57 162.267 1016.57 155.2C1016.57 148.133 1014.24 142.6 1009.57 138.6C1004.9 134.6 998.17 132.6 989.37 132.6H959.17V177.8ZM991.37 242C1000.44 242 1007.5 239.867 1012.57 235.6C1017.64 231.333 1020.17 225.4 1020.17 217.8C1020.17 210.067 1017.5 204 1012.17 199.6C1006.84 195.067 999.704 192.8 990.77 192.8H959.17V242H991.37ZM1081.83 109V257H1063.63V109H1081.83ZM1160.65 258.8C1150.38 258.8 1141.05 256.467 1132.65 251.8C1124.38 247.133 1117.85 240.533 1113.05 232C1108.38 223.333 1106.05 213.333 1106.05 202C1106.05 190.8 1108.45 180.933 1113.25 172.4C1118.18 163.733 1124.85 157.133 1133.25 152.6C1141.65 147.933 1151.05 145.6 1161.45 145.6C1171.85 145.6 1181.25 147.933 1189.65 152.6C1198.05 157.133 1204.65 163.667 1209.45 172.2C1214.38 180.733 1216.85 190.667 1216.85 202C1216.85 213.333 1214.31 223.333 1209.25 232C1204.31 240.533 1197.58 247.133 1189.05 251.8C1180.51 256.467 1171.05 258.8 1160.65 258.8ZM1160.65 242.8C1167.18 242.8 1173.31 241.267 1179.05 238.2C1184.78 235.133 1189.38 230.533 1192.85 224.4C1196.45 218.267 1198.25 210.8 1198.25 202C1198.25 193.2 1196.51 185.733 1193.05 179.6C1189.58 173.467 1185.05 168.933 1179.45 166C1173.85 162.933 1167.78 161.4 1161.25 161.4C1154.58 161.4 1148.45 162.933 1142.85 166C1137.38 168.933 1132.98 173.467 1129.65 179.6C1126.31 185.733 1124.65 193.2 1124.65 202C1124.65 210.933 1126.25 218.467 1129.45 224.6C1132.78 230.733 1137.18 235.333 1142.65 238.4C1148.11 241.333 1154.11 242.8 1160.65 242.8ZM1297.78 187.4L1340.58 257H1319.98L1286.58 202.6L1254.77 257H1234.58L1277.18 187.4L1234.38 117.6H1254.77L1288.38 172.2L1320.38 117.6H1340.78L1297.78 187.4Z" fill="white"/>
</svg>
